<?xml version="1.0" encoding="UTF-8"?>
<svg width="364px" height="61px" viewBox="0 0 364 61" version="1.1" xmlns="http://www.w3.org/2000/svg" xmlns:xlink="http://www.w3.org/1999/xlink">
    <title>Group 2</title>
    <g id="Page-1" stroke="none" stroke-width="1" fill="none" fill-rule="evenodd">
        <g id="Artboard-Copy-20" transform="translate(-107.000000, -70.000000)">
            <g id="Group-2" transform="translate(109.006915, 71.998479)">
                <path d="M134.124514,7.31722111 L142.584514,20.0372211 L150.024514,7.31722111 L161.664514,7.31722111 L148.284514,28.5572211 L162.204514,49.4372211 L150.264514,49.4372211 L141.684514,36.5372211 L134.124514,49.4372211 L122.484514,49.4372211 L135.984514,28.0172211 L127.664514,15.5372211 L100.704514,15.5372211 L100.704514,24.4172211 L120.744514,24.4172211 L120.744514,32.3972211 L100.704514,32.3972211 L100.704514,49.4372211 L90.4445139,49.4372211 L90.4445139,7.31722111 L134.124514,7.31722111 Z M201.564514,49.4372211 L192.804514,33.5372211 L190.344514,33.5372211 L190.344514,49.4372211 L180.084514,49.4372211 L180.084514,7.31722111 L197.304514,7.31722111 C200.624514,7.31722111 203.454514,7.89722111 205.794514,9.05722111 C208.134514,10.2172211 209.884514,11.8072211 211.044514,13.8272211 C212.204514,15.8472211 212.784514,18.0972211 212.784514,20.5772211 C212.784514,23.3772211 211.994514,25.8772211 210.414514,28.0772211 C208.834514,30.2772211 206.504514,31.8372211 203.424514,32.7572211 L213.144514,49.4372211 L201.564514,49.4372211 Z M190.344514,26.2772211 L196.704514,26.2772211 C198.584514,26.2772211 199.994514,25.8172211 200.934514,24.8972211 C201.874514,23.9772211 202.344514,22.6772211 202.344514,20.9972211 C202.344514,19.3972211 201.874514,18.1372211 200.934514,17.2172211 C199.994514,16.2972211 198.584514,15.8372211 196.704514,15.8372211 L190.344514,15.8372211 L190.344514,26.2772211 Z M245.424514,41.9972211 L229.704514,41.9972211 L227.184514,49.4372211 L216.444514,49.4372211 L231.684514,7.31722111 L243.564514,7.31722111 L258.804514,49.4372211 L247.944514,49.4372211 L245.424514,41.9972211 Z M242.784514,34.0772211 L237.564514,18.6572211 L232.404514,34.0772211 L242.784514,34.0772211 Z M293.724514,7.31722111 L293.724514,15.5372211 L282.564514,15.5372211 L282.564514,49.4372211 L272.304514,49.4372211 L272.304514,15.5372211 L261.144514,15.5372211 L261.144514,7.31722111 L293.724514,7.31722111 Z M309.144514,15.5372211 L309.144514,24.0572211 L322.884514,24.0572211 L322.884514,31.9772211 L309.144514,31.9772211 L309.144514,41.2172211 L324.684514,41.2172211 L324.684514,49.4372211 L298.884514,49.4372211 L298.884514,7.31722111 L324.684514,7.31722111 L324.684514,15.5372211 L309.144514,15.5372211 Z M346.584514,49.8572211 C343.504514,49.8572211 340.744514,49.3572211 338.304514,48.3572211 C335.864514,47.3572211 333.914514,45.8772211 332.454514,43.9172211 C330.994514,41.9572211 330.224514,39.5972211 330.144514,36.8372211 L341.064514,36.8372211 C341.224514,38.3972211 341.764514,39.5872211 342.684514,40.4072211 C343.604514,41.2272211 344.804514,41.6372211 346.284514,41.6372211 C347.804514,41.6372211 349.004514,41.2872211 349.884514,40.5872211 C350.764514,39.8872211 351.204514,38.9172211 351.204514,37.6772211 C351.204514,36.6372211 350.854514,35.7772211 350.154514,35.0972211 C349.454514,34.4172211 348.594514,33.8572211 347.574514,33.4172211 C346.554514,32.9772211 345.104514,32.4772211 343.224514,31.9172211 C340.504514,31.0772211 338.284514,30.2372211 336.564514,29.3972211 C334.844514,28.5572211 333.364514,27.3172211 332.124514,25.6772211 C330.884514,24.0372211 330.264514,21.8972211 330.264514,19.2572211 C330.264514,15.3372211 331.684514,12.2672211 334.524514,10.0472211 C337.364514,7.82722111 341.064514,6.71722111 345.624514,6.71722111 C350.264514,6.71722111 354.004514,7.82722111 356.844514,10.0472211 C359.684514,12.2672211 361.204514,15.3572211 361.404514,19.3172211 L350.304514,19.3172211 C350.224514,17.9572211 349.724514,16.8872211 348.804514,16.1072211 C347.884514,15.3272211 346.704514,14.9372211 345.264514,14.9372211 C344.024514,14.9372211 343.024514,15.2672211 342.264514,15.9272211 C341.504514,16.5872211 341.124514,17.5372211 341.124514,18.7772211 C341.124514,20.1372211 341.764514,21.1972211 343.044514,21.9572211 C344.324514,22.7172211 346.324514,23.5372211 349.044514,24.4172211 C351.764514,25.3372211 353.974514,26.2172211 355.674514,27.0572211 C357.374514,27.8972211 358.844514,29.1172211 360.084514,30.7172211 C361.324514,32.3172211 361.944514,34.3772211 361.944514,36.8972211 C361.944514,39.2972211 361.334514,41.4772211 360.114514,43.4372211 C358.894514,45.3972211 357.124514,46.9572211 354.804514,48.1172211 C352.484514,49.2772211 349.744514,49.8572211 346.584514,49.8572211 Z" id="Combined-Shape" fill="#062255" fill-rule="nonzero"></path>
                <g id="Group">
                    <path d="M57.1545051,18.6300006 C57.1545051,23.5709747 55.1916483,28.3096518 51.6979023,31.8033978 C48.2041563,35.2971438 43.4654295,37.2600006 38.5245051,37.2600006 C38.0927859,37.2600006 37.6615635,37.2351606 37.2328251,37.1854806 C32.7569055,36.886407 28.5408123,34.9747206 25.3665087,31.8051366 C22.1922051,28.6353042 20.2745322,24.4221918 19.9690251,19.9465206 C19.9194444,19.509436 19.8945051,19.0698922 19.8945051,18.6300006 C19.8945051,13.6890265 21.8573619,8.95039908 25.3511079,5.4566034 C28.8448539,1.96280772 33.5835807,6.00357453e-07 38.5245051,6.00357453e-07 C43.4654295,6.00357453e-07 48.2041563,1.96280772 51.6979023,5.4566034 C55.1916483,8.95039908 57.1545051,13.6890265 57.1545051,18.6300006 Z" id="Path" fill="#FFEF5E" fill-rule="nonzero"></path>
                    <path d="M38.5245051,0 C33.5835807,0 28.8448539,1.96280772 25.3511079,5.4566034 C21.8573619,8.95039908 19.8945051,13.6890265 19.8945051,18.6300006 C19.8945051,19.0698922 19.9194444,19.509436 19.9690251,19.9465206 C20.2678999,24.3727602 22.1474931,28.5443898 25.2649131,31.7008086 L51.5953131,5.3704086 C48.1167195,1.92728652 43.4189787,-0.00281625564 38.5245051,0 Z" id="Path" fill="#FFFAD6" fill-rule="nonzero"></path>
                    <path d="M37.2402771,37.1780286 C37.5172431,40.9703514 36.6282195,44.7564642 34.6924383,48.0291342 C32.7564087,51.3018042 29.8662747,53.904291 26.4092919,55.487841 C22.9523091,57.0711426 19.0938622,57.5597454 15.3513187,56.8880718 C11.6087753,56.2163982 8.16105782,54.4164918 5.47046354,51.7297974 C2.7798941,49.043103 0.975044539,45.5980434 0.297980659,41.8563942 C-0.379083221,38.114745 0.104005099,34.2556026 1.68243806,30.7963842 C3.26087102,27.3371658 5.85920954,24.4433058 9.12902294,22.5026808 C12.3988612,20.5620558 16.1838562,19.6675426 19.9764771,19.9390934 C20.2819842,24.4147398 22.1996571,28.6278522 25.3739607,31.7976846 C28.5482643,34.967517 32.7643575,36.878955 37.2402771,37.1780286 Z" id="Path" fill="#FFBC44" fill-rule="nonzero"></path>
                    <path d="M19.9764771,19.9390438 C16.2013684,19.6707718 12.4340843,20.5586527 9.1760699,22.4844731 C5.9180555,24.4102686 3.32384042,27.2827662 1.7387255,30.7193802 C0.153610579,34.1559942 -0.347213501,37.9940226 0.302923819,41.7225066 C0.953036299,45.4507422 2.72328374,48.892821 5.37800906,51.5901966 L25.2723651,31.6933566 C22.1549451,28.5369378 20.2753519,24.3653082 19.9764771,19.9390438 Z" id="Path" fill="#FFDDA1" fill-rule="nonzero"></path>
                    <path d="M57.1545051,18.6300006 C57.1545051,23.5709747 55.1916483,28.3096518 51.6979023,31.8033978 C48.2041563,35.2971438 43.4654295,37.2600006 38.5245051,37.2600006 C38.0927859,37.2600006 37.6615635,37.2351606 37.2328251,37.1854806 C32.7569055,36.886407 28.5408123,34.9747206 25.3665087,31.8051366 C22.1922051,28.6353042 20.2745322,24.4221918 19.9690251,19.9465206 C19.9194444,19.509436 19.8945051,19.0698922 19.8945051,18.6300006 C19.8945051,13.6890265 21.8573619,8.95039908 25.3511079,5.4566034 C28.8448539,1.96280772 33.5835807,6.00357453e-07 38.5245051,6.00357453e-07 C43.4654295,6.00357453e-07 48.2041563,1.96280772 51.6979023,5.4566034 C55.1916483,8.95039908 57.1545051,13.6890265 57.1545051,18.6300006 L57.1545051,18.6300006 Z" id="Path" stroke="#191919" stroke-width="2.7" stroke-linecap="round" stroke-linejoin="round"></path>
                    <path d="M37.2402771,37.1780286 C37.5172431,40.9703514 36.6282195,44.7564642 34.6924383,48.0291342 C32.7564087,51.3018042 29.8662747,53.904291 26.4092919,55.487841 C22.9523091,57.0711426 19.0938622,57.5597454 15.3513187,56.8880718 C11.6087753,56.2163982 8.16105782,54.4164918 5.47046354,51.7297974 C2.7798941,49.043103 0.975044539,45.5980434 0.297980659,41.8563942 C-0.379083221,38.114745 0.104005099,34.2556026 1.68243806,30.7963842 C3.26087102,27.3371658 5.85920954,24.4433058 9.12902294,22.5026808 C12.3988612,20.5620558 16.1838562,19.6675426 19.9764771,19.9390934 C20.2819842,24.4147398 22.1996571,28.6278522 25.3739607,31.7976846 C28.5482643,34.967517 32.7643575,36.878955 37.2402771,37.1780286 L37.2402771,37.1780286 Z" id="Path" stroke="#191919" stroke-width="2.7" stroke-linecap="round" stroke-linejoin="round"></path>
                    <polyline id="Path" stroke="#191919" stroke-width="2.7" stroke-linecap="round" stroke-linejoin="round" points="1.22476106 11.2574638 6.20766506 16.2080758 11.1607611 11.2276558"></polyline>
                    <path d="M18.5829531,1.26686544 C16.9519338,1.27175892 15.3378555,1.5978336 13.8328495,2.226534 C12.3278436,2.85520956 10.9614201,3.77416536 9.81157646,4.93093932 C8.66173286,6.08768844 7.7509991,7.45960164 7.1313653,8.9683584 C6.51170666,10.4770903 6.19531958,12.0931062 6.20015715,13.7241254 L6.20015715,16.2081254" id="Path" stroke="#191919" stroke-width="2.7" stroke-linecap="round" stroke-linejoin="round"></path>
                    <polyline id="Path" stroke="#191919" stroke-width="2.7" stroke-linecap="round" stroke-linejoin="round" points="55.9671531 45.8596086 50.9842491 40.9089966 46.0311531 45.8769966"></polyline>
                    <path d="M38.6089611,55.8502566 C40.2399555,55.8452886 41.8540587,55.5193878 43.3591143,54.8906874 C44.8641699,54.261987 46.2303699,53.342907 47.3802135,52.1861082 C48.5300571,51.0293094 49.4409399,49.6573962 50.0604495,48.148863 C50.6802075,46.6400814 50.9966691,45.023991 50.9917587,43.3929966 L50.9917587,40.9089966" id="Path" stroke="#191919" stroke-width="2.7" stroke-linecap="round" stroke-linejoin="round"></path>
                    <path d="M19.8945051,47.1960006 C18.8877399,47.3125002 17.8676604,47.1997266 16.9105752,46.8663738 C15.95349,46.533021 15.0841149,45.987783 14.3674809,45.271149 C13.6508469,44.554515 13.1054598,43.685115 12.7721319,42.7280298 C12.4387791,41.7709446 12.3261048,40.7507658 12.4425051,39.7440006 C12.3261048,38.7372354 12.4387791,37.7170566 12.7721319,36.7599714 C13.1054598,35.8028862 13.6508469,34.9337346 14.3674809,34.2168522 C15.0841149,33.5002182 15.95349,32.9549802 16.9105752,32.6216274 C17.8676604,32.2882746 18.8877399,32.175501 19.8945051,32.2920006" id="Path" stroke="#191919" stroke-width="2.7" stroke-linecap="round" stroke-linejoin="round"></path>
                    <line x1="9.95850506" y1="37.2600006" x2="19.8945051" y2="37.2600006" id="Path" stroke="#191919" stroke-width="2.7" stroke-linecap="round" stroke-linejoin="round"></line>
                    <line x1="9.95850506" y1="42.2280006" x2="17.4105051" y2="42.2280006" id="Path" stroke="#191919" stroke-width="2.7" stroke-linecap="round" stroke-linejoin="round"></line>
                    <path d="M42.2505051,9.93592976 L38.0277051,9.93592976 C37.3304463,9.93066 36.6503271,10.1510902 36.0886947,10.5644278 C35.5270623,10.9777405 35.1144699,11.5617041 34.9122723,12.2290307 C34.7100747,12.8963573 34.7294499,13.611178 34.9674171,14.2666062 C35.2051359,14.9220593 35.6487783,15.4829216 36.2317731,15.8653334 L40.8023331,18.9107174 C41.3843343,19.2924337 41.8272315,19.8519547 42.0654471,20.5059174 C42.3036627,21.1598801 42.3240315,21.87326 42.1238211,22.5398166 C41.9236107,23.2063483 41.5135023,23.7902622 40.9543539,24.2048418 C40.3952055,24.6194214 39.7173219,24.8422362 39.0213051,24.8400173 L34.7985051,24.8400173" id="Path" stroke="#191919" stroke-width="2.7" stroke-linecap="round" stroke-linejoin="round"></path>
                    <line x1="39.7665051" y1="9.9360006" x2="39.7665051" y2="7.4520006" id="Path" stroke="#191919" stroke-width="2.7" stroke-linecap="round" stroke-linejoin="round"></line>
                    <line x1="37.2825051" y1="27.3240006" x2="37.2825051" y2="24.8400006" id="Path" stroke="#191919" stroke-width="2.7" stroke-linecap="round" stroke-linejoin="round"></line>
                </g>
            </g>
        </g>
    </g>
</svg>